<?xml version="1.0" encoding="UTF-8" standalone="no"?>
<!-- Generator: Adobe Illustrator 26.3.1, SVG Export Plug-In . SVG Version: 6.00 Build 0)  -->

<svg
   version="1.1"
   id="svg8"
   sodipodi:docname="rat_silouette.svg"
   x="0px"
   y="0px"
   viewBox="0 0 198.56899 198.68263"
   xml:space="preserve"
   width="198.56898"
   height="198.68263"
   inkscape:version="1.1 (c68e22c387, 2021-05-23)"
   xmlns:inkscape="http://www.inkscape.org/namespaces/inkscape"
   xmlns:sodipodi="http://sodipodi.sourceforge.net/DTD/sodipodi-0.dtd"
   xmlns="http://www.w3.org/2000/svg"
   xmlns:svg="http://www.w3.org/2000/svg"><defs
   id="defs18" />
<style
   type="text/css"
   id="style2">
	.st0{fill:#FFFFFF;stroke:#000000;stroke-width:3.6781;stroke-linejoin:round;stroke-miterlimit:11.3386;}
	.st1{stroke:#000000;stroke-width:3.6781;stroke-linejoin:round;stroke-miterlimit:11.3386;}
	.st2{fill:#FFFFFF;stroke:#000000;stroke-width:1.8666;stroke-linejoin:round;stroke-miterlimit:11.3386;}
	.st3{fill:#FFFFFF;}
	.st4{stroke:#FFFFFF;stroke-width:1.8666;stroke-linejoin:round;stroke-miterlimit:11.3386;}
</style>
<sodipodi:namedview
   bordercolor="#666666"
   borderopacity="1.0"
   id="base"
   inkscape:current-layer="svg8"
   inkscape:cx="-78.791898"
   inkscape:cy="20.203051"
   inkscape:document-units="mm"
   inkscape:guide-bbox="true"
   inkscape:pageopacity="0.0"
   inkscape:pageshadow="2"
   inkscape:window-height="1094"
   inkscape:window-maximized="1"
   inkscape:window-width="1920"
   inkscape:window-x="-11"
   inkscape:window-y="-11"
   inkscape:zoom="0.49497475"
   pagecolor="#ffffff"
   showgrid="false"
   showguides="true"
   inkscape:pagecheckerboard="0"
   fit-margin-top="0"
   fit-margin-left="0"
   fit-margin-right="0"
   fit-margin-bottom="0">
	<sodipodi:guide
   id="guide4699"
   inkscape:locked="false"
   orientation="1,0"
   position="-62.256935,-215.80571" />
	<sodipodi:guide
   id="guide4924"
   inkscape:locked="false"
   orientation="1,0"
   position="-62.242793,-215.74221" />
	<sodipodi:guide
   id="guide5027"
   inkscape:locked="false"
   orientation="0,1"
   position="-62.002969,-215.86801" />
	<sodipodi:guide
   id="guide2973"
   inkscape:locked="false"
   orientation="0,1"
   position="-62.039524,-215.91043" />
	<sodipodi:guide
   id="guide4969"
   inkscape:locked="false"
   orientation="0,1"
   position="-62.012866,-215.83239" />
</sodipodi:namedview>
<g
   id="g4176"
   inkscape:export-ydpi="200"
   inkscape:export-xdpi="200"
   transform="translate(-62.11551,-427.15642)">
	<path
   id="path5086-7-5"
   inkscape:connector-curvature="0"
   sodipodi:nodetypes="cssscccsccccasac"
   class="st0"
   d="m 243.8,429 c 3.4,0.1 7,1.3 9.6,3.2 2.2,1.6 3.9,3.8 4.7,6.3 1.4,4.7 0.7,10.1 -1.2,14.7 -3.4,8.1 -10.3,15 -16.8,19.6 -0.6,7.9 -1.5,23.5 -4.5,37.3 -2.3,9.4 -7.6,22.5 -17.2,37.4 -6.3,9.8 -17.5,21.3 -20.6,29.8 -4.2,11.5 -3.8,21.3 -16.3,33.1 -8.1,7.2 -7.4,5.9 -10.6,9.2 -3.9,4.1 -4.8,4.4 -8.6,4.4 L 162,438.8 c 24.4,1.1 31.9,6.7 47.5,3.7 6.5,-1.2 12.4,-5 17.5,-8.7 4.6,-3.3 10.9,-4.9 16.8,-4.8 z" />
	<path
   id="path5086-20"
   inkscape:connector-curvature="0"
   sodipodi:nodetypes="cssscccsccccasac"
   class="st1"
   d="m 79,429 c -3.4,0.1 -7,1.3 -9.6,3.2 -2.2,1.6 -3.9,3.8 -4.7,6.3 -1.4,4.7 -0.7,10.1 1.2,14.7 3.4,8.1 10.3,15 16.8,19.6 0.6,7.9 1.5,23.5 4.5,37.3 2.3,9.4 7.6,22.5 17.2,37.4 6.3,9.8 17.5,21.3 20.6,29.8 4.2,11.5 3.8,21.3 16.3,33.1 8.1,7.2 7.4,5.9 10.6,9.2 3.9,4.1 4.8,4.4 8.6,4.4 l 0.3,-185.1 c -24.4,1.1 -31.9,6.7 -47.5,3.7 -6.5,-1.2 -12.4,-5 -17.5,-8.7 -4.6,-3.4 -10.9,-5 -16.8,-4.9 z" />
	<path
   id="path4528-7"
   inkscape:connector-curvature="0"
   sodipodi:nodetypes="caassac"
   class="st2"
   d="m 125.9,522.9 c -8.5,1.7 -7.6,13.1 -5.2,19.4 1.8,4.8 6.9,10.8 13.6,10.9 3,0 5.2,-1.3 6.3,-4.7 0.6,-1.8 1.2,-9.5 -1.6,-13.4 -2.4,-3.4 -15.4,-6.9 -13.1,-12.2 0,0 0,0 0,0 z" />
	<path
   id="rect4952-2"
   class="st3"
   d="m 162.3,440.7 h 1.3 c 0.4,0 0.8,0.1 0.8,0.2 v 180.9 c 0,0.1 -0.3,0.2 -0.8,0.2 h -1.3 c -0.4,0 -0.8,-0.1 -0.8,-0.2 V 441 c 0,-0.2 0.4,-0.3 0.8,-0.3 z" />
	<path
   id="path4528-8-2"
   inkscape:connector-curvature="0"
   sodipodi:nodetypes="caassac"
   class="st4"
   d="m 198.6,522.9 c 8.5,1.7 7.6,13.1 5.2,19.4 -1.8,4.8 -6.9,10.8 -13.6,10.9 -3,0 -5.2,-1.3 -6.3,-4.7 -0.6,-1.8 -1.2,-9.5 1.6,-13.4 2.5,-3.4 15.5,-6.9 13.1,-12.2 z" />
</g>
<g
   id="layer2"
   inkscape:groupmode="layer"
   inkscape:label="Layer 2"
   transform="translate(-62.11551,-427.15642)">
</g>
</svg>
