<svg version="1.1" viewBox="0 0 198.57 198.68" xmlns="http://www.w3.org/2000/svg">
 <style type="text/css">.st0{fill:#FFFFFF;stroke:#000000;stroke-width:3.6781;stroke-linejoin:round;stroke-miterlimit:11.3386;}
	.st1{stroke:#000000;stroke-width:3.6781;stroke-linejoin:round;stroke-miterlimit:11.3386;}
	.st2{fill:#FFFFFF;stroke:#000000;stroke-width:1.8666;stroke-linejoin:round;stroke-miterlimit:11.3386;}
	.st3{fill:#FFFFFF;}
	.st4{stroke:#FFFFFF;stroke-width:1.8666;stroke-linejoin:round;stroke-miterlimit:11.3386;}</style>
 <g transform="translate(-62.116 -427.16)">
  <path class="st0" d="m243.8 429c3.4 0.1 7 1.3 9.6 3.2 2.2 1.6 3.9 3.8 4.7 6.3 1.4 4.7 0.7 10.1-1.2 14.7-3.4 8.1-10.3 15-16.8 19.6-0.6 7.9-1.5 23.5-4.5 37.3-2.3 9.4-7.6 22.5-17.2 37.4-6.3 9.8-17.5 21.3-20.6 29.8-4.2 11.5-3.8 21.3-16.3 33.1-8.1 7.2-7.4 5.9-10.6 9.2-3.9 4.1-4.8 4.4-8.6 4.4l-0.3-185.2c24.4 1.1 31.9 6.7 47.5 3.7 6.5-1.2 12.4-5 17.5-8.7 4.6-3.3 10.9-4.9 16.8-4.8z"/>
  <path class="st1" d="m79 429c-3.4 0.1-7 1.3-9.6 3.2-2.2 1.6-3.9 3.8-4.7 6.3-1.4 4.7-0.7 10.1 1.2 14.7 3.4 8.1 10.3 15 16.8 19.6 0.6 7.9 1.5 23.5 4.5 37.3 2.3 9.4 7.6 22.5 17.2 37.4 6.3 9.8 17.5 21.3 20.6 29.8 4.2 11.5 3.8 21.3 16.3 33.1 8.1 7.2 7.4 5.9 10.6 9.2 3.9 4.1 4.8 4.4 8.6 4.4l0.3-185.1c-24.4 1.1-31.9 6.7-47.5 3.7-6.5-1.2-12.4-5-17.5-8.7-4.6-3.4-10.9-5-16.8-4.9z"/>
  <path class="st2" d="m125.9 522.9c-8.5 1.7-7.6 13.1-5.2 19.4 1.8 4.8 6.9 10.8 13.6 10.9 3 0 5.2-1.3 6.3-4.7 0.6-1.8 1.2-9.5-1.6-13.4-2.4-3.4-15.4-6.9-13.1-12.2z"/>
  <path class="st3" d="m162.3 440.7h1.3c0.4 0 0.8 0.1 0.8 0.2v180.9c0 0.1-0.3 0.2-0.8 0.2h-1.3c-0.4 0-0.8-0.1-0.8-0.2v-180.8c0-0.2 0.4-0.3 0.8-0.3z"/>
  <path class="st4" d="m198.6 522.9c8.5 1.7 7.6 13.1 5.2 19.4-1.8 4.8-6.9 10.8-13.6 10.9-3 0-5.2-1.3-6.3-4.7-0.6-1.8-1.2-9.5 1.6-13.4 2.5-3.4 15.5-6.9 13.1-12.2z"/>
 </g>
</svg>
